<?xml version="1.0" encoding="UTF-8" standalone="no"?>
<svg
   id="Layer_1"
   data-name="Layer 1"
   viewBox="0 0 24 24"
   width="512"
   height="512"
   version="1.1"
   xmlns="http://www.w3.org/2000/svg"
   xmlns:svg="http://www.w3.org/2000/svg">
  <defs
     id="defs1" />
  <path
     d="M 8.579,21.422 0.622,13.465 C 0.244,13.087 0.036,12.585 0.036,12.05 c 0,-0.535 0.208,-1.037 0.586,-1.414 L 8.629,2.629 9.336,3.336 1.329,11.343 c -0.189,0.189 -0.293,0.44 -0.293,0.707 0,0.267 0.104,0.519 0.293,0.708 l 7.957,7.957 z m 14.8,-7.957 c 0.378,-0.378 0.586,-0.88 0.586,-1.415 0,-0.535 -0.208,-1.037 -0.586,-1.414 l -8.008,-8.007 -0.707,0.707 8.007,8.007 c 0.189,0.189 0.293,0.44 0.293,0.707 0,0.267 -0.104,0.519 -0.293,0.708 l -7.957,7.957 0.707,0.707 7.957,-7.957 z"
     id="path1"
     style="fill:#e6e6e6" />
</svg>
