<?xml version="1.0"?>
<svg version="1.1" id="Layer_1" xmlns="http://www.w3.org/2000/svg" x="0" y="0" viewBox="0 0 100 100" xml:space="preserve"><path fill="#a8b980" d="M57.7 36.7H42.3L34.6 50l7.7 13.3h15.4L65.4 50z"/><path fill="#d65a62" d="M57.7 63.3H42.3l-7.7 13.4L42.3 90h15.4l7.7-13.3z"/><path fill="#d65a62" d="M57.7 10H42.3l-7.7 13.3 7.7 13.4h15.4l7.7-13.4z"/><path fill="#f0af6b" d="M34.6 50H19.2l-7.7 13.3 7.7 13.4h15.4l7.7-13.4z"/><path fill="#ea7c60" d="M34.6 23.3H19.2l-7.7 13.4L19.2 50h15.4l7.7-13.3z"/><path fill="#ea7c60" d="M80.8 50H65.4l-7.7 13.3 7.7 13.4h15.4l7.7-13.4z"/><path fill="#f0af6b" d="M80.8 23.3H65.4l-7.7 13.4L65.4 50h15.4l7.7-13.3z"/><metadata xmlns:d="https://loading.io/stock/"><d:name>hive</d:name><d:tags>bee,honeycomb,nest,hexagon,tactic,grid,cell,hive,spinner</d:tags><d:license>by</d:license><d:slug>r2ai7s</d:slug></metadata></svg>