<?xml version="1.0" encoding="UTF-8" standalone="no"?>
<svg
   id="Layer_1"
   data-name="Layer 1"
   viewBox="0 0 23.928999 18.792999"
   width="510.48532"
   height="400.9173"
   version="1.1"
   xmlns="http://www.w3.org/2000/svg"
   xmlns:svg="http://www.w3.org/2000/svg">
  <defs
     id="defs1" />
  <path
     d="M 8.543,18.793 0.586,10.836 C 0.208,10.458 0,9.956 0,9.421 0,8.886 0.208,8.384 0.586,8.007 L 8.593,0 9.3,0.707 1.293,8.714 C 1.104,8.903 1,9.154 1,9.421 1,9.688 1.104,9.94 1.293,10.129 l 7.957,7.957 z m 14.8,-7.957 c 0.378,-0.378 0.586,-0.88 0.586,-1.415 0,-0.535 -0.208,-1.037 -0.586,-1.414 L 15.335,0 14.628,0.707 22.635,8.714 c 0.189,0.189 0.293,0.44 0.293,0.707 0,0.267 -0.104,0.519 -0.293,0.708 l -7.957,7.957 0.707,0.707 7.957,-7.957 z"
     id="path1"
     style="fill:#e6e6e6" />
</svg>
